<svg width="40" height="40" viewBox="0 0 40 40" fill="none" xmlns="http://www.w3.org/2000/svg">
<path d="M40 20C40 8.9543 31.0457 0 20 0C8.95432 0 0 8.9543 0 20C0 31.0457 8.95432 40 20 40C31.0457 40 40 31.0457 40 20Z" fill="#34407D"/>
<path d="M30 15.5352V25.0002C30 25.7654 29.7077 26.5017 29.1827 27.0584C28.6578 27.6152 27.9399 27.9503 27.176 27.9952L27 28.0002H13C12.2348 28.0002 11.4985 27.7078 10.9417 27.1829C10.385 26.6579 10.0499 25.9401 10.005 25.1762L10 25.0002V15.5352L19.445 21.8322L19.561 21.8982C19.6977 21.965 19.8478 21.9997 20 21.9997C20.1522 21.9997 20.3023 21.965 20.439 21.8982L20.555 21.8322L30 15.5352Z" fill="#9DD0FF"/>
<path d="M27.0003 12C28.0803 12 29.0273 12.57 29.5553 13.427L20.0003 19.797L10.4453 13.427C10.6961 13.0198 11.0406 12.6785 11.4501 12.4315C11.8596 12.1845 12.3222 12.0389 12.7993 12.007L13.0003 12H27.0003Z" fill="#9DD0FF"/>
</svg>
