<svg width="40" height="40" viewBox="0 0 40 40" fill="none" xmlns="http://www.w3.org/2000/svg">
<rect width="40" height="40" rx="8" fill="#272D69"/>
<path d="M17 26H23" stroke="#9DD0FF" stroke-width="1.3" stroke-linecap="round" stroke-linejoin="round"/>
<path d="M18 29H22" stroke="#9DD0FF" stroke-width="1.3" stroke-linecap="round" stroke-linejoin="round"/>
<path d="M20 11C18.4087 11 16.8826 11.6321 15.7574 12.7574C14.6321 13.8826 14 15.4087 14 17C14 18.5 14.5 19.5 15.5 21C16.1667 22 17 23 17 24H23C23 23 23.8333 22 24.5 21C25.5 19.5 26 18.5 26 17C26 15.4087 25.3679 13.8826 24.2426 12.7574C23.1174 11.6321 21.5913 11 20 11Z" stroke="#9DD0FF" stroke-width="1.3" stroke-linecap="round" stroke-linejoin="round"/>
<path d="M20 15V17" stroke="#9DD0FF" stroke-width="1.3" stroke-linecap="round" stroke-linejoin="round"/>
<path d="M18.5 18.5L19.5 19.5" stroke="#9DD0FF" stroke-width="1.3" stroke-linecap="round" stroke-linejoin="round"/>
</svg>
